<?xml version="1.0" standalone="no"?>
<svg xmlns:xlink="http://www.w3.org/1999/xlink" xmlns="http://www.w3.org/2000/svg" id="treesvg" width="254.4577862395982" height="1121.4991319448957"><g transform="translate(50,537.1886598391518) scale(0.47121812266592256)"><path class="link" d="M120,-100C180,-100 180,600 240,600" style="fill: none; stroke: rgb(204, 204, 204); stroke-width: 2px;"/><path class="link" d="M120,-100C180,-100 180,-880 240,-880" style="fill: none; stroke: rgb(204, 204, 204); stroke-width: 2px;"/><path class="link" d="M120,-100C180,-100 180,-720 240,-720" style="fill: none; stroke: rgb(204, 204, 204); stroke-width: 2px;"/><path class="link" d="M120,-100C180,-100 180,-160 240,-160" style="fill: none; stroke: rgb(204, 204, 204); stroke-width: 2px;"/><path class="link" d="M120,-100C180,-100 180,440 240,440" style="fill: none; stroke: rgb(204, 204, 204); stroke-width: 2px;"/><path class="link" d="M120,-100C180,-100 180,720 240,720" style="fill: none; stroke: rgb(204, 204, 204); stroke-width: 2px;"/><path class="link" d="M120,-100C180,-100 180,-640 240,-640" style="fill: none; stroke: rgb(204, 204, 204); stroke-width: 2px;"/><path class="link" d="M120,-100C180,-100 180,-120 240,-120" style="fill: none; stroke: rgb(204, 204, 204); stroke-width: 2px;"/><path class="link" d="M120,-100C180,-100 180,-480 240,-480" style="fill: none; stroke: rgb(204, 204, 204); stroke-width: 2px;"/><path class="link" d="M120,-1040C180,-1040 180,-1040 240,-1040" style="fill: none; stroke: rgb(204, 204, 204); stroke-width: 2px;"/><path class="link" d="M0,0C60,0 60,-1040 120,-1040" style="fill: none; stroke: rgb(204, 204, 204); stroke-width: 2px;"/><path class="link" d="M0,0C60,0 60,-100 120,-100" style="fill: none; stroke: rgb(204, 204, 204); stroke-width: 2px;"/><path class="link" d="M120,-100C180,-100 180,-80 240,-80" style="fill: none; stroke: rgb(204, 204, 204); stroke-width: 2px;"/><path class="link" d="M120,-100C180,-100 180,40 240,40" style="fill: none; stroke: rgb(204, 204, 204); stroke-width: 2px;"/><path class="link" d="M120,-100C180,-100 180,560 240,560" style="fill: none; stroke: rgb(204, 204, 204); stroke-width: 2px;"/><path class="link" d="M120,-100C180,-100 180,-840 240,-840" style="fill: none; stroke: rgb(204, 204, 204); stroke-width: 2px;"/><path class="link" d="M120,-100C180,-100 180,680 240,680" style="fill: none; stroke: rgb(204, 204, 204); stroke-width: 2px;"/><path class="link" d="M120,-100C180,-100 180,360 240,360" style="fill: none; stroke: rgb(204, 204, 204); stroke-width: 2px;"/><path class="link" d="M120,-100C180,-100 180,-280 240,-280" style="fill: none; stroke: rgb(204, 204, 204); stroke-width: 2px;"/><path class="link" d="M120,-100C180,-100 180,280 240,280" style="fill: none; stroke: rgb(204, 204, 204); stroke-width: 2px;"/><path class="link" d="M120,-100C180,-100 180,-40 240,-40" style="fill: none; stroke: rgb(204, 204, 204); stroke-width: 2px;"/><path class="link" d="M120,-100C180,-100 180,-920 240,-920" style="fill: none; stroke: rgb(204, 204, 204); stroke-width: 2px;"/><path class="link" d="M120,-100C180,-100 180,520 240,520" style="fill: none; stroke: rgb(204, 204, 204); stroke-width: 2px;"/><path class="link" d="M120,-100C180,-100 180,160 240,160" style="fill: none; stroke: rgb(204, 204, 204); stroke-width: 2px;"/><path class="link" d="M120,940C180,940 180,920 240,920" style="fill: none; stroke: rgb(204, 204, 204); stroke-width: 2px;"/><path class="link" d="M0,0C60,0 60,940 120,940" style="fill: none; stroke: rgb(204, 204, 204); stroke-width: 2px;"/><path class="link" d="M120,-100C180,-100 180,-200 240,-200" style="fill: none; stroke: rgb(204, 204, 204); stroke-width: 2px;"/><path class="link" d="M120,-100C180,-100 180,-760 240,-760" style="fill: none; stroke: rgb(204, 204, 204); stroke-width: 2px;"/><path class="link" d="M120,-100C180,-100 180,640 240,640" style="fill: none; stroke: rgb(204, 204, 204); stroke-width: 2px;"/><path class="link" d="M120,-100C180,-100 180,-600 240,-600" style="fill: none; stroke: rgb(204, 204, 204); stroke-width: 2px;"/><path class="link" d="M120,-100C180,-100 180,480 240,480" style="fill: none; stroke: rgb(204, 204, 204); stroke-width: 2px;"/><path class="link" d="M120,-100C180,-100 180,120 240,120" style="fill: none; stroke: rgb(204, 204, 204); stroke-width: 2px;"/><path class="link" d="M120,940C180,940 180,960 240,960" style="fill: none; stroke: rgb(204, 204, 204); stroke-width: 2px;"/><path class="link" d="M120,-100C180,-100 180,-800 240,-800" style="fill: none; stroke: rgb(204, 204, 204); stroke-width: 2px;"/><path class="link" d="M120,-100C180,-100 180,200 240,200" style="fill: none; stroke: rgb(204, 204, 204); stroke-width: 2px;"/><path class="link" d="M120,-100C180,-100 180,-240 240,-240" style="fill: none; stroke: rgb(204, 204, 204); stroke-width: 2px;"/><path class="link" d="M120,-100C180,-100 180,400 240,400" style="fill: none; stroke: rgb(204, 204, 204); stroke-width: 2px;"/><path class="link" d="M120,-100C180,-100 180,-440 240,-440" style="fill: none; stroke: rgb(204, 204, 204); stroke-width: 2px;"/><path class="link" d="M120,-100C180,-100 180,-560 240,-560" style="fill: none; stroke: rgb(204, 204, 204); stroke-width: 2px;"/><path class="link" d="M120,-100C180,-100 180,-400 240,-400" style="fill: none; stroke: rgb(204, 204, 204); stroke-width: 2px;"/><path class="link" d="M120,-100C180,-100 180,-520 240,-520" style="fill: none; stroke: rgb(204, 204, 204); stroke-width: 2px;"/><path class="link" d="M120,-100C180,-100 180,240 240,240" style="fill: none; stroke: rgb(204, 204, 204); stroke-width: 2px;"/><path class="link" d="M120,-100C180,-100 180,-960 240,-960" style="fill: none; stroke: rgb(204, 204, 204); stroke-width: 2px;"/><path class="link" d="M120,-100C180,-100 180,-320 240,-320" style="fill: none; stroke: rgb(204, 204, 204); stroke-width: 2px;"/><path class="link" d="M120,-100C180,-100 180,760 240,760" style="fill: none; stroke: rgb(204, 204, 204); stroke-width: 2px;"/><path class="link" d="M120,-100C180,-100 180,-360 240,-360" style="fill: none; stroke: rgb(204, 204, 204); stroke-width: 2px;"/><path class="link" d="M120,-100C180,-100 180,0 240,0" style="fill: none; stroke: rgb(204, 204, 204); stroke-width: 2px;"/><path class="link" d="M120,1040C180,1040 180,1040 240,1040" style="fill: none; stroke: rgb(204, 204, 204); stroke-width: 2px;"/><path class="link" d="M120,-100C180,-100 180,-680 240,-680" style="fill: none; stroke: rgb(204, 204, 204); stroke-width: 2px;"/><path class="link" d="M0,0C60,0 60,1040 120,1040" style="fill: none; stroke: rgb(204, 204, 204); stroke-width: 2px;"/><path class="link" d="M120,-100C180,-100 180,80 240,80" style="fill: none; stroke: rgb(204, 204, 204); stroke-width: 2px;"/><path class="link" d="M120,840C180,840 180,840 240,840" style="fill: none; stroke: rgb(204, 204, 204); stroke-width: 2px;"/><path class="link" d="M0,0C60,0 60,840 120,840" style="fill: none; stroke: rgb(204, 204, 204); stroke-width: 2px;"/><path class="link" d="M120,-100C180,-100 180,320 240,320" style="fill: none; stroke: rgb(204, 204, 204); stroke-width: 2px;"/><g class="node" transform="translate(0,0)"><circle r="10" style="fill: rgb(255, 255, 255); stroke-dasharray: none; stroke: rgb(70, 130, 180); stroke-width: 2px;"/><text x="14" dy=".35em" style="fill-opacity: 1;" transform="rotate(40.00000131811317),scale(1.0000000124717339,1.0000000124717339)">root</text></g><g class="node" transform="translate(240,600)"><circle r="10" style="fill: rgb(255, 255, 255); stroke-dasharray: none; stroke: rgb(70, 130, 180); stroke-width: 2px;"/><text x="14" dy=".35em" style="fill-opacity: 1;" transform="rotate(40.00000131811317),scale(1.0000000124717339,1.0000000124717339)">Thermodesulfobacteriota</text></g><g class="node" transform="translate(240,-160)"><circle r="10" style="fill: rgb(255, 255, 255); stroke-dasharray: none; stroke: rgb(70, 130, 180); stroke-width: 2px;"/><text x="14" dy=".35em" style="fill-opacity: 1;" transform="rotate(40.00000131811317),scale(1.0000000124717339,1.0000000124717339)">Cyanobacteriota</text></g><g class="node" transform="translate(240,-720)"><circle r="10" style="fill: rgb(255, 255, 255); stroke-dasharray: none; stroke: rgb(70, 130, 180); stroke-width: 2px;"/><text x="14" dy=".35em" style="fill-opacity: 1;" transform="rotate(40.00000131811317),scale(1.0000000124717339,1.0000000124717339)">Bacillota</text></g><g class="node" transform="translate(240,-880)"><circle r="10" style="fill: rgb(255, 255, 255); stroke-dasharray: none; stroke: rgb(70, 130, 180); stroke-width: 2px;"/><text x="14" dy=".35em" style="fill-opacity: 1;" transform="rotate(40.00000131811317),scale(1.0000000124717339,1.0000000124717339)">Actinomycetota</text></g><g class="node" transform="translate(240,440)"><circle r="10" style="fill: rgb(255, 255, 255); stroke-dasharray: none; stroke: rgb(70, 130, 180); stroke-width: 2px;"/><text x="14" dy=".35em" style="fill-opacity: 1;" transform="rotate(40.00000131811317),scale(1.0000000124717339,1.0000000124717339)">Pseudomonadota</text></g><g class="node" transform="translate(240,720)"><circle r="10" style="fill: rgb(255, 255, 255); stroke-dasharray: none; stroke: rgb(70, 130, 180); stroke-width: 2px;"/><text x="14" dy=".35em" style="fill-opacity: 1;" transform="rotate(40.00000131811317),scale(1.0000000124717339,1.0000000124717339)">Verrucomicrobiota</text></g><g class="node" transform="translate(240,-640)"><circle r="10" style="fill: rgb(255, 255, 255); stroke-dasharray: none; stroke: rgb(70, 130, 180); stroke-width: 2px;"/><text x="14" dy=".35em" style="fill-opacity: 1;" transform="rotate(40.00000131811317),scale(1.0000000124717339,1.0000000124717339)">Bacteroidota</text></g><g class="node" transform="translate(240,-120)"><circle r="10" style="fill: rgb(255, 255, 255); stroke-dasharray: none; stroke: rgb(70, 130, 180); stroke-width: 2px;"/><text x="14" dy=".35em" style="fill-opacity: 1;" transform="rotate(40.00000131811317),scale(1.0000000124717339,1.0000000124717339)">Deferribacterota</text></g><g class="node" transform="translate(240,-480)"><circle r="10" style="fill: rgb(255, 255, 255); stroke-dasharray: none; stroke: rgb(70, 130, 180); stroke-width: 2px;"/><text x="14" dy=".35em" style="fill-opacity: 1;" transform="rotate(40.00000131811317),scale(1.0000000124717339,1.0000000124717339)">Campylobacterota</text></g><g class="node" transform="translate(120,-100)"><circle r="10" style="fill: rgb(255, 255, 255); stroke-dasharray: none; stroke: rgb(70, 130, 180); stroke-width: 2px;"/><text x="14" dy=".35em" style="fill-opacity: 1;" transform="rotate(40.00000131811317),scale(1.0000000124717339,1.0000000124717339)">Bacteria</text></g><g class="node" transform="translate(240,-1040)"><circle r="10" style="fill: rgb(255, 255, 255); stroke-dasharray: none; stroke: rgb(70, 130, 180); stroke-width: 2px;"/><text x="14" dy=".35em" style="fill-opacity: 1;" transform="rotate(40.00000131811317),scale(1.0000000124717339,1.0000000124717339)">Euryarchaeota</text></g><g class="node" transform="translate(120,-1040)"><circle r="10" style="fill: rgb(255, 255, 255); stroke-dasharray: none; stroke: rgb(70, 130, 180); stroke-width: 2px;"/><text x="14" dy=".35em" style="fill-opacity: 1;" transform="rotate(40.00000131811317),scale(1.0000000124717339,1.0000000124717339)">Archaea</text></g><g class="node" transform="translate(240,-80)"><circle r="10" style="fill: rgb(255, 255, 255); stroke-dasharray: none; stroke: rgb(70, 130, 180); stroke-width: 2px;"/><text x="14" dy=".35em" style="fill-opacity: 1;" transform="rotate(40.00000131811317),scale(1.0000000124717339,1.0000000124717339)">Deinococcota</text></g><g class="node" transform="translate(240,40)"><circle r="10" style="fill: rgb(255, 255, 255); stroke-dasharray: none; stroke: rgb(70, 130, 180); stroke-width: 2px;"/><text x="14" dy=".35em" style="fill-opacity: 1;" transform="rotate(40.00000131811317),scale(1.0000000124717339,1.0000000124717339)">Fusobacteriota</text></g><g class="node" transform="translate(240,560)"><circle r="10" style="fill: rgb(255, 255, 255); stroke-dasharray: none; stroke: rgb(70, 130, 180); stroke-width: 2px;"/><text x="14" dy=".35em" style="fill-opacity: 1;" transform="rotate(40.00000131811317),scale(1.0000000124717339,1.0000000124717339)">Synergistota</text></g><g class="node" transform="translate(240,-840)"><circle r="10" style="fill: rgb(255, 255, 255); stroke-dasharray: none; stroke: rgb(70, 130, 180); stroke-width: 2px;"/><text x="14" dy=".35em" style="fill-opacity: 1;" transform="rotate(40.00000131811317),scale(1.0000000124717339,1.0000000124717339)">Aquificota</text></g><g class="node" transform="translate(240,680)"><circle r="10" style="fill: rgb(255, 255, 255); stroke-dasharray: none; stroke: rgb(70, 130, 180); stroke-width: 2px;"/><text x="14" dy=".35em" style="fill-opacity: 1;" transform="rotate(40.00000131811317),scale(1.0000000124717339,1.0000000124717339)">Thermotogota</text></g><g class="node" transform="translate(240,360)"><circle r="10" style="fill: rgb(255, 255, 255); stroke-dasharray: none; stroke: rgb(70, 130, 180); stroke-width: 2px;"/><text x="14" dy=".35em" style="fill-opacity: 1;" transform="rotate(40.00000131811317),scale(1.0000000124717339,1.0000000124717339)">Nitrospirota</text></g><g class="node" transform="translate(240,-280)"><circle r="10" style="fill: rgb(255, 255, 255); stroke-dasharray: none; stroke: rgb(70, 130, 180); stroke-width: 2px;"/><text x="14" dy=".35em" style="fill-opacity: 1;" transform="rotate(40.00000131811317),scale(1.0000000124717339,1.0000000124717339)">Chlamydiota</text></g><g class="node" transform="translate(240,280)"><circle r="10" style="fill: rgb(255, 255, 255); stroke-dasharray: none; stroke: rgb(70, 130, 180); stroke-width: 2px;"/><text x="14" dy=".35em" style="fill-opacity: 1;" transform="rotate(40.00000131811317),scale(1.0000000124717339,1.0000000124717339)">Myxococcota</text></g><g class="node" transform="translate(240,-40)"><circle r="10" style="fill: rgb(255, 255, 255); stroke-dasharray: none; stroke: rgb(70, 130, 180); stroke-width: 2px;"/><text x="14" dy=".35em" style="fill-opacity: 1;" transform="rotate(40.00000131811317),scale(1.0000000124717339,1.0000000124717339)">Elusimicrobiota</text></g><g class="node" transform="translate(240,-920)"><circle r="10" style="fill: rgb(255, 255, 255); stroke-dasharray: none; stroke: rgb(70, 130, 180); stroke-width: 2px;"/><text x="14" dy=".35em" style="fill-opacity: 1;" transform="rotate(40.00000131811317),scale(1.0000000124717339,1.0000000124717339)">Acidobacteriota</text></g><g class="node" transform="translate(240,520)"><circle r="10" style="fill: rgb(255, 255, 255); stroke-dasharray: none; stroke: rgb(70, 130, 180); stroke-width: 2px;"/><text x="14" dy=".35em" style="fill-opacity: 1;" transform="rotate(40.00000131811317),scale(1.0000000124717339,1.0000000124717339)">Spirochaetota</text></g><g class="node" transform="translate(240,160)"><circle r="10" style="fill: rgb(255, 255, 255); stroke-dasharray: none; stroke: rgb(70, 130, 180); stroke-width: 2px;"/><text x="14" dy=".35em" style="fill-opacity: 1;" transform="rotate(40.00000131811317),scale(1.0000000124717339,1.0000000124717339)">Kiritimatiellota</text></g><g class="node" transform="translate(240,920)"><circle r="10" style="fill: rgb(255, 255, 255); stroke-dasharray: none; stroke: rgb(70, 130, 180); stroke-width: 2px;"/><text x="14" dy=".35em" style="fill-opacity: 1;" transform="rotate(40.00000131811317),scale(1.0000000124717339,1.0000000124717339)">Preplasmiviricota</text></g><g class="node" transform="translate(120,940)"><circle r="10" style="fill: rgb(255, 255, 255); stroke-dasharray: none; stroke: rgb(70, 130, 180); stroke-width: 2px;"/><text x="14" dy=".35em" style="fill-opacity: 1;" transform="rotate(40.00000131811317),scale(1.0000000124717339,1.0000000124717339)">Viruses</text></g><g class="node" transform="translate(240,-200)"><circle r="10" style="fill: rgb(255, 255, 255); stroke-dasharray: none; stroke: rgb(70, 130, 180); stroke-width: 2px;"/><text x="14" dy=".35em" style="fill-opacity: 1;" transform="rotate(40.00000131811317),scale(1.0000000124717339,1.0000000124717339)">Coprothermobacterota</text></g><g class="node" transform="translate(240,-760)"><circle r="10" style="fill: rgb(255, 255, 255); stroke-dasharray: none; stroke: rgb(70, 130, 180); stroke-width: 2px;"/><text x="14" dy=".35em" style="fill-opacity: 1;" transform="rotate(40.00000131811317),scale(1.0000000124717339,1.0000000124717339)">Atribacterota</text></g><g class="node" transform="translate(240,640)"><circle r="10" style="fill: rgb(255, 255, 255); stroke-dasharray: none; stroke: rgb(70, 130, 180); stroke-width: 2px;"/><text x="14" dy=".35em" style="fill-opacity: 1;" transform="rotate(40.00000131811317),scale(1.0000000124717339,1.0000000124717339)">Thermomicrobiota</text></g><g class="node" transform="translate(240,-600)"><circle r="10" style="fill: rgb(255, 255, 255); stroke-dasharray: none; stroke: rgb(70, 130, 180); stroke-width: 2px;"/><text x="14" dy=".35em" style="fill-opacity: 1;" transform="rotate(40.00000131811317),scale(1.0000000124717339,1.0000000124717339)">Balneolota</text></g><g class="node" transform="translate(240,480)"><circle r="10" style="fill: rgb(255, 255, 255); stroke-dasharray: none; stroke: rgb(70, 130, 180); stroke-width: 2px;"/><text x="14" dy=".35em" style="fill-opacity: 1;" transform="rotate(40.00000131811317),scale(1.0000000124717339,1.0000000124717339)">Rhodothermota</text></g><g class="node" transform="translate(240,120)"><circle r="10" style="fill: rgb(255, 255, 255); stroke-dasharray: none; stroke: rgb(70, 130, 180); stroke-width: 2px;"/><text x="14" dy=".35em" style="fill-opacity: 1;" transform="rotate(40.00000131811317),scale(1.0000000124717339,1.0000000124717339)">Ignavibacteriota</text></g><g class="node" transform="translate(240,960)"><circle r="10" style="fill: rgb(255, 255, 255); stroke-dasharray: none; stroke: rgb(70, 130, 180); stroke-width: 2px;"/><text x="14" dy=".35em" style="fill-opacity: 1;" transform="rotate(40.00000131811317),scale(1.0000000124717339,1.0000000124717339)">Uroviricota</text></g><g class="node" transform="translate(240,-800)"><circle r="10" style="fill: rgb(255, 255, 255); stroke-dasharray: none; stroke: rgb(70, 130, 180); stroke-width: 2px;"/><text x="14" dy=".35em" style="fill-opacity: 1;" transform="rotate(40.00000131811317),scale(1.0000000124717339,1.0000000124717339)">Armatimonadota</text></g><g class="node" transform="translate(240,200)"><circle r="10" style="fill: rgb(255, 255, 255); stroke-dasharray: none; stroke: rgb(70, 130, 180); stroke-width: 2px;"/><text x="14" dy=".35em" style="fill-opacity: 1;" transform="rotate(40.00000131811317),scale(1.0000000124717339,1.0000000124717339)">Lentisphaerota</text></g><g class="node" transform="translate(240,-240)"><circle r="10" style="fill: rgb(255, 255, 255); stroke-dasharray: none; stroke: rgb(70, 130, 180); stroke-width: 2px;"/><text x="14" dy=".35em" style="fill-opacity: 1;" transform="rotate(40.00000131811317),scale(1.0000000124717339,1.0000000124717339)">Chrysiogenota</text></g><g class="node" transform="translate(240,400)"><circle r="10" style="fill: rgb(255, 255, 255); stroke-dasharray: none; stroke: rgb(70, 130, 180); stroke-width: 2px;"/><text x="14" dy=".35em" style="fill-opacity: 1;" transform="rotate(40.00000131811317),scale(1.0000000124717339,1.0000000124717339)">Planctomycetota</text></g><g class="node" transform="translate(240,-440)"><circle r="10" style="fill: rgb(255, 255, 255); stroke-dasharray: none; stroke: rgb(70, 130, 180); stroke-width: 2px;"/><text x="14" dy=".35em" style="fill-opacity: 1;" transform="rotate(40.00000131811317),scale(1.0000000124717339,1.0000000124717339)">Candidatus Cloacimonadota</text></g><g class="node" transform="translate(240,-560)"><circle r="10" style="fill: rgb(255, 255, 255); stroke-dasharray: none; stroke: rgb(70, 130, 180); stroke-width: 2px;"/><text x="14" dy=".35em" style="fill-opacity: 1;" transform="rotate(40.00000131811317),scale(1.0000000124717339,1.0000000124717339)">Bdellovibrionota</text></g><g class="node" transform="translate(240,-400)"><circle r="10" style="fill: rgb(255, 255, 255); stroke-dasharray: none; stroke: rgb(70, 130, 180); stroke-width: 2px;"/><text x="14" dy=".35em" style="fill-opacity: 1;" transform="rotate(40.00000131811317),scale(1.0000000124717339,1.0000000124717339)">Candidatus Cryosericota</text></g><g class="node" transform="translate(240,-520)"><circle r="10" style="fill: rgb(255, 255, 255); stroke-dasharray: none; stroke: rgb(70, 130, 180); stroke-width: 2px;"/><text x="14" dy=".35em" style="fill-opacity: 1;" transform="rotate(40.00000131811317),scale(1.0000000124717339,1.0000000124717339)">Caldisericota</text></g><g class="node" transform="translate(240,240)"><circle r="10" style="fill: rgb(255, 255, 255); stroke-dasharray: none; stroke: rgb(70, 130, 180); stroke-width: 2px;"/><text x="14" dy=".35em" style="fill-opacity: 1;" transform="rotate(40.00000131811317),scale(1.0000000124717339,1.0000000124717339)">Mycoplasmatota</text></g><g class="node" transform="translate(240,-960)"><circle r="10" style="fill: rgb(255, 255, 255); stroke-dasharray: none; stroke: rgb(70, 130, 180); stroke-width: 2px;"/><text x="14" dy=".35em" style="fill-opacity: 1;" transform="rotate(40.00000131811317),scale(1.0000000124717339,1.0000000124717339)">Abditibacteriota</text></g><g class="node" transform="translate(240,-320)"><circle r="10" style="fill: rgb(255, 255, 255); stroke-dasharray: none; stroke: rgb(70, 130, 180); stroke-width: 2px;"/><text x="14" dy=".35em" style="fill-opacity: 1;" transform="rotate(40.00000131811317),scale(1.0000000124717339,1.0000000124717339)">Candidatus Omnitrophota</text></g><g class="node" transform="translate(240,760)"><circle r="10" style="fill: rgb(153, 255, 187); stroke-dasharray: none; stroke: rgb(70, 130, 180); stroke-width: 2px;"/><text x="14" dy=".35em" style="fill-opacity: 1;" transform="rotate(40.00000131811317),scale(1.0000000124717339,1.0000000124717339)">Phy_delta/epsilon subdivisions</text></g><g class="node" transform="translate(240,-360)"><circle r="10" style="fill: rgb(255, 255, 255); stroke-dasharray: none; stroke: rgb(70, 130, 180); stroke-width: 2px;"/><text x="14" dy=".35em" style="fill-opacity: 1;" transform="rotate(40.00000131811317),scale(1.0000000124717339,1.0000000124717339)">Candidatus Kryptonia</text></g><g class="node" transform="translate(240,0)"><circle r="10" style="fill: rgb(255, 255, 255); stroke-dasharray: none; stroke: rgb(70, 130, 180); stroke-width: 2px;"/><text x="14" dy=".35em" style="fill-opacity: 1;" transform="rotate(40.00000131811317),scale(1.0000000124717339,1.0000000124717339)">Fibrobacterota</text></g><g class="node" transform="translate(240,1040)"><circle r="10" style="fill: rgb(255, 255, 153); stroke-dasharray: none; stroke: rgb(70, 130, 180); stroke-width: 2px;"/><text x="14" dy=".35em" style="fill-opacity: 1;" transform="rotate(40.00000131811317),scale(1.0000000124717339,1.0000000124717339)">Phy_in_root</text></g><g class="node" transform="translate(120,1040)"><circle r="10" style="fill: rgb(255, 255, 153); stroke-dasharray: none; stroke: rgb(70, 130, 180); stroke-width: 2px;"/><text x="14" dy=".35em" style="fill-opacity: 1;" transform="rotate(40.00000131811317),scale(1.0000000124717339,1.0000000124717339)">spKin_in_root</text></g><g class="node" transform="translate(240,-680)"><circle r="10" style="fill: rgb(255, 255, 153); stroke-dasharray: none; stroke: rgb(70, 130, 180); stroke-width: 2px;"/><text x="14" dy=".35em" style="fill-opacity: 1;" transform="rotate(40.00000131811317),scale(1.0000000124717339,1.0000000124717339)">Phy_in_Bacteria</text></g><g class="node" transform="translate(240,80)"><circle r="10" style="fill: rgb(255, 255, 255); stroke-dasharray: none; stroke: rgb(70, 130, 180); stroke-width: 2px;"/><text x="14" dy=".35em" style="fill-opacity: 1;" transform="rotate(40.00000131811317),scale(1.0000000124717339,1.0000000124717339)">Gemmatimonadota</text></g><g class="node" transform="translate(240,840)"><circle r="10" style="fill: rgb(255, 255, 255); stroke-dasharray: none; stroke: rgb(70, 130, 180); stroke-width: 2px;"/><text x="14" dy=".35em" style="fill-opacity: 1;" transform="rotate(40.00000131811317),scale(1.0000000124717339,1.0000000124717339)">Arthropoda</text></g><g class="node" transform="translate(120,840)"><circle r="10" style="fill: rgb(255, 255, 255); stroke-dasharray: none; stroke: rgb(70, 130, 180); stroke-width: 2px;"/><text x="14" dy=".35em" style="fill-opacity: 1;" transform="rotate(40.00000131811317),scale(1.0000000124717339,1.0000000124717339)">Eukaryota</text></g><g class="node" transform="translate(240,320)"><circle r="10" style="fill: rgb(255, 255, 255); stroke-dasharray: none; stroke: rgb(70, 130, 180); stroke-width: 2px;"/><text x="14" dy=".35em" style="fill-opacity: 1;" transform="rotate(40.00000131811317),scale(1.0000000124717339,1.0000000124717339)">Nitrospinota</text></g></g></svg>